# xmcd CD database file
# Copyright (C) 1993-1998 Ti Kan
# 
# Track frame offsets:
#     150
#     16138
#     29273
#     41088
#     58868
#     72688
#     85015
#     99198
#     116495
#     130223
#     151150
# 
# Disc length: 2218 seconds
# 
# Revision: 1
# Processed by: cddbd v1.4b41PL1 Copyright (c) Steve Scherf et al.
# Submitted via: DiscPlay 4.0.4
# 
DISCID=8808a80b
DTITLE=Olivia Newton-John - Have You Never Been Mellow
DYEAR=1900
DGENRE=
TTITLE0=Have You Never Been Mellow
TTITLE1=Loving Arms
TTITLE2=Lifestream
TTITLE3=Goodbye Again
TTITLE4=Water Under The Bridge
TTITLE5=I Never Did Sing You A Love Song
TTITLE6=It's So Easy
TTITLE7=The Air That I Breathe
TTITLE8=Follow Me
TTITLE9=And In The Morning
TTITLE10=Please Mr. Please
EXTD=
EXTT0=
EXTT1=
EXTT2=
EXTT3=
EXTT4=
EXTT5=
EXTT6=
EXTT7=
EXTT8=
EXTT9=
EXTT10=
PLAYORDER=
